# xmcd
#
# Track frame offsets:
#	150
#	23702
#	39369
#	55396
#	73439
#	86117
#	99148
#	113208
#	127642
#	142860
#	158600
#	172649
#	188743
#	205700
#	220759
#	235186
#
# Disc length: 3391 seconds
#
# Revision: 1
# Processed by: cddbd v1.5.2PL0 Copyright (c) Steve Scherf et al.
# Submitted via: EasyCDDAExtractor 10.0.2.1
#
DISCID=c60d3d10
DTITLE=Various Artist - COOL SONGS in bossa
DYEAR=2007
DGENRE=Blues
TTITLE0=Alejandro Sanz - Corazón partío
TTITLE1=Billy Joel - Just the way you are
TTITLE2=John Lennon - Poul McCartney - Hey Jude
TTITLE3=Sting - Roxxane
TTITLE4=Jesse Harris - Beanly - Don't know why
TTITLE5=Carole King - It's to late
TTITLE6=Peter Cetera - If you leave me now
TTITLE7=Stephen Morris - Bizzare love triangle
TTITLE8=The Gibbs - How deep is your love
TTITLE9=M. Riperton - Loving you
TTITLE10=The Doors - Light my fire
TTITLE11=Stevie Wonder - You are the sunshine of my life
TTITLE12=Becker - Fagen - Do it again
TTITLE13=Stevie Wonder - Isn't she lovely?
TTITLE14=B. Bachara - H. David - Isay a little prayer for you
TTITLE15=Carole king - You've got a friend
EXTD=
EXTT0=
EXTT1=
EXTT2=
EXTT3=
EXTT4=
EXTT5=
EXTT6=
EXTT7=
EXTT8=
EXTT9=
EXTT10=
EXTT11=
EXTT12=
EXTT13=
EXTT14=
EXTT15=
PLAYORDER=
